<svg xmlns="http://www.w3.org/2000/svg" viewBox="0 0 35.854 32.931">
    <defs>
        <style>
            .cls-1{fill:#ff8859}.cls-2{fill:#ff3939}.cls-3{fill:#ffda44}.cls-4{fill:#ff9f22}.cls-5{fill:#fff5f5}.cls-6{fill:#efe2dd}.cls-7{fill:#cdbfba}
        </style>
    </defs>
    <g id="platinum-reward" transform="translate(.001)">
        <path id="Path_465" d="M.307 266.448l7.97 3.914a1.05 1.05 0 0 0 1.486 0l6.986-6.986a1.05 1.05 0 0 0-.841-1.789l-5.3.5.5-5.3a1.051 1.051 0 0 0-1.789-.841l-9.012 9.017a1.05 1.05 0 0 0 0 1.485zm0 0" class="cls-1" data-name="Path 465" transform="translate(18.797 -255.641)"/>
        <path id="Path_466" d="M268.733 263.376l6.986 6.986a1.05 1.05 0 0 0 1.486 0l7.97-3.914a1.05 1.05 0 0 0 0-1.485l-9.014-9.014a1.051 1.051 0 0 0-1.789.841l.5 5.3-5.3-.5a1.051 1.051 0 0 0-.841 1.789zm0 0" class="cls-2" data-name="Path 466" transform="translate(-268.426 -255.641)"/>
        <path id="Path_467" d="M71.515 13.677l2.08 2.08-.756 2.857a1.05 1.05 0 0 0 .735 1.282l2.857.756.756 2.857a1.034 1.034 0 0 0 1.282.735l2.857-.756 2.08 2.08a1.015 1.015 0 0 0 1.47 0l2.08-2.08 2.857.756a1.042 1.042 0 0 0 1.281-.735l.756-2.857 2.857-.756a1.05 1.05 0 0 0 .735-1.282l-.756-2.857 2.08-2.08a1.015 1.015 0 0 0 0-1.471l-2.08-2.08.756-2.857a1.05 1.05 0 0 0-.735-1.282l-2.857-.756-.756-2.857a1.043 1.043 0 0 0-1.282-.735l-2.856.761-2.08-2.085a1.015 1.015 0 0 0-1.47 0L81.325 2.4l-2.857-.756a1.033 1.033 0 0 0-1.281.735l-.757 2.852-2.857.756a1.05 1.05 0 0 0-.735 1.282l.756 2.857-2.08 2.08a1.015 1.015 0 0 0 .001 1.471zm0 0" class="cls-3" data-name="Path 467" transform="translate(-66.214 7.048)"/>
        <path id="Path_468" d="M256.315 12.206l2.08-2.08-.756-2.857a1.05 1.05 0 0 1 .735-1.282l2.857-.756.756-2.857a1.034 1.034 0 0 1 1.282-.735l2.857.756 2.08-2.08a.985.985 0 0 1 .735-.315v25.882a.985.985 0 0 1-.735-.315l-2.08-2.08-2.857.756a1.034 1.034 0 0 1-1.282-.735l-.756-2.857-2.857-.756a1.05 1.05 0 0 1-.735-1.282l.756-2.857-2.08-2.08a1.015 1.015 0 0 1 0-1.471zm0 0" class="cls-4" data-name="Path 468" transform="translate(-251.015 7.048)"/>
        <g id="Group_117" data-name="Group 117" transform="rotate(180 295.427 206.066)">
            <path id="Path_469" d="M151.6 110.851l7.311-1.05 7.311 1.05a1.125 1.125 0 0 1-.063.462l-2.1 4.2a1.076 1.076 0 0 1-.945.588h-8.4a1.075 1.075 0 0 1-.945-.588l-2.1-4.2a1.126 1.126 0 0 1-.063-.462zm0 0" class="cls-5" data-name="Path 469" transform="translate(414.014 281.392)"/>
            <path id="Path_470" d="M256 110.851l7.311-1.05v6.3h-4.2a1.075 1.075 0 0 1-.945-.588l-2.1-4.2a1.125 1.125 0 0 1-.063-.462zm0 0" class="cls-6" data-name="Path 470" transform="translate(309.616 281.392)"/>
            <path id="Path_471" d="M151.6 192.154a.949.949 0 0 1 .273-.735l6.3-6.3a1.015 1.015 0 0 1 1.471 0l6.3 6.3a.949.949 0 0 1 .273.735zm0 0" class="cls-6" data-name="Path 471" transform="translate(414.015 200.09)"/>
            <path id="Path_472" d="M256 192.154a.949.949 0 0 1 .273-.735l6.3-6.3a.985.985 0 0 1 .735-.315v7.353zm0 0" class="cls-7" data-name="Path 472" transform="translate(309.617 200.09)"/>
        </g>
    </g>
</svg>
