<svg xmlns="http://www.w3.org/2000/svg" id="product" viewBox="0 0 20.229 23.173">
    <defs>
        <style>
            .cls-1{fill:#383746}
        </style>
    </defs>
    <path id="Path_446" d="M121.968 12.265h8.147a.678.678 0 0 0 .679-.679V3.394a.678.678 0 0 0-.679-.679h-2.037v-.678a2.037 2.037 0 1 0-4.073 0v.679h-2.037a.679.679 0 0 0-.679.679v8.192a.679.679 0 0 0 .679.678zm3.394-10.228a.679.679 0 0 1 1.358 0v.679h-1.358zm0 0" class="cls-1" data-name="Path 446" transform="translate(-115.8)"/>
    <path id="Path_447" d="M20.131 241.327a.679.679 0 0 0-.581-.327 3.216 3.216 0 0 0-2.849 1.723l-2.082 3.977a2.033 2.033 0 0 1-1.8 1.091H8.2a.679.679 0 1 1 0-1.358h4.61a.678.678 0 0 0 .6-.364l.778-1.485a.591.591 0 0 0-.525-.866h-7.05a3.373 3.373 0 0 0-2.4.994L.2 248.725a.679.679 0 0 0 0 .96l3.394 3.381a.678.678 0 0 0 .96 0l2.574-2.566h5.687a4.741 4.741 0 0 0 4.21-2.546l3.127-5.963a.676.676 0 0 0-.02-.667zm0 0" class="cls-1" data-name="Path 447" transform="translate(0 -230.092)"/>
</svg>
