<svg xmlns="http://www.w3.org/2000/svg" viewBox="0 0 20.824 20.825">
    <defs>
        <style>
            .cls-1{fill:#e6e7e8}.cls-2{fill:#a5a5a5}
        </style>
    </defs>
    <g id="user">
        <path id="Path_450" d="M0 10.412a10.366 10.366 0 0 0 3.59 7.864v-3.2a4.309 4.309 0 0 1 4.31-4.305h2.513V0A10.413 10.413 0 0 0 0 10.412zm0 0" class="cls-1" data-name="Path 450"/>
        <path id="Path_451" d="M232 0v10.772h2.513a4.309 4.309 0 0 1 4.309 4.309v3.2A10.41 10.41 0 0 0 232 0zm0 0" class="cls-1" data-name="Path 451" transform="translate(-221.587)"/>
        <path id="Path_452" d="M160 67.231a3.231 3.231 0 0 0 3.231 3.231V64A3.231 3.231 0 0 0 160 67.231zm0 0" class="cls-2" data-name="Path 452" transform="translate(-152.819 -61.128)"/>
        <path id="Path_453" d="M232 64v6.463A3.231 3.231 0 0 0 232 64zm0 0" class="cls-2" data-name="Path 453" transform="translate(-221.588 -61.128)"/>
        <path id="Path_454" d="M84.309 240A4.309 4.309 0 0 0 80 244.309v3.2a10.35 10.35 0 0 0 6.822 2.549V240zm0 0" class="cls-2" data-name="Path 454" transform="translate(-76.41 -229.229)"/>
        <path id="Path_455" d="M234.513 240H232v10.054a10.35 10.35 0 0 0 6.822-2.549v-3.2a4.309 4.309 0 0 0-4.309-4.305zm0 0" class="cls-2" data-name="Path 455" transform="translate(-221.588 -229.229)"/>
    </g>
</svg>
