<svg xmlns="http://www.w3.org/2000/svg" id="google" viewBox="0 0 136 40">
    <defs>
        <style>
            .cls-1,.cls-3,.cls-6,.cls-7,.cls-8,.cls-9{fill-rule:evenodd}.cls-2{fill:#a6a6a6}.cls-3,.cls-4,.cls-5{fill:#fff}.cls-3,.cls-4{stroke:#fff;stroke-width:.625px}.cls-6{fill:url(#linear-gradient)}.cls-7{fill:url(#linear-gradient-2)}.cls-8{fill:url(#linear-gradient-3)}.cls-9{fill:url(#linear-gradient-4)}
        </style>
        <linearGradient id="linear-gradient" x1=".613" x2=".26" y1=".05" y2=".719" gradientUnits="objectBoundingBox">
            <stop offset="0" stop-color="#00a0ff"/>
            <stop offset=".007" stop-color="#00a1ff"/>
            <stop offset=".26" stop-color="#00beff"/>
            <stop offset=".512" stop-color="#00d2ff"/>
            <stop offset=".76" stop-color="#00dfff"/>
            <stop offset="1" stop-color="#00e3ff"/>
        </linearGradient>
        <linearGradient id="linear-gradient-2" x1="1.076" x2="-1.305" y1=".5" y2=".5" gradientUnits="objectBoundingBox">
            <stop offset="0" stop-color="#ffe000"/>
            <stop offset=".409" stop-color="#ffbd00"/>
            <stop offset=".775" stop-color="orange"/>
            <stop offset="1" stop-color="#ff9c00"/>
        </linearGradient>
        <linearGradient id="linear-gradient-3" x1=".862" x2="-.501" y1=".894" y2="1.92" gradientUnits="objectBoundingBox">
            <stop offset="0" stop-color="#ff3a44"/>
            <stop offset="1" stop-color="#c31162"/>
        </linearGradient>
        <linearGradient id="linear-gradient-4" x1="-.188" x2=".421" y1="-.684" y2="-.226" gradientUnits="objectBoundingBox">
            <stop offset="0" stop-color="#32a071"/>
            <stop offset=".068" stop-color="#2da771"/>
            <stop offset=".476" stop-color="#15cf74"/>
            <stop offset=".801" stop-color="#06e775"/>
            <stop offset="1" stop-color="#00f076"/>
        </linearGradient>
    </defs>
    <path id="Path_385" d="M130 40H5a5.016 5.016 0 0 1-5-5V5a5.016 5.016 0 0 1 5-5h125a5.016 5.016 0 0 1 5 5v30a5.016 5.016 0 0 1-5 5z" class="cls-1" data-name="Path 385"/>
    <path id="Path_386" d="M130.79 1a4.191 4.191 0 0 1 4.217 4.155v29.69A4.192 4.192 0 0 1 130.789 39H5.211a4.192 4.192 0 0 1-4.218-4.155V5.155A4.192 4.192 0 0 1 5.21 1h125.578zm.173-1H5.037A5.034 5.034 0 0 0 0 5v30a5.035 5.035 0 0 0 5.037 5h125.926A5.034 5.034 0 0 0 136 35V5a5.035 5.035 0 0 0-5.037-5z" class="cls-2" data-name="Path 386"/>
    <path id="Path_387" d="M49.182 10.957a2.686 2.686 0 0 1-.744 1.984 2.951 2.951 0 0 1-2.213.88 3.059 3.059 0 0 1-2.211-.89 2.985 2.985 0 0 1-.911-2.216 2.967 2.967 0 0 1 .91-2.21 3.044 3.044 0 0 1 2.212-.9 3.17 3.17 0 0 1 1.234.252 2.432 2.432 0 0 1 .94.662l-.524.523a2.051 2.051 0 0 0-1.65-.7A2.311 2.311 0 0 0 44.581 9a2.263 2.263 0 0 0-.69 1.712 2.278 2.278 0 0 0 .69 1.718 2.332 2.332 0 0 0 1.644.658 2.3 2.3 0 0 0 1.68-.663 1.855 1.855 0 0 0 .5-1.2h-2.18v-.716h2.912a2.021 2.021 0 0 1 .045.45zm4.355-2.482H50.8v1.882h2.466v.716H50.8v1.883h2.735v.729h-3.51v-5.94h3.51zm3.248 5.21h-.774v-5.21h-1.678v-.73h4.131v.73h-1.679zm4.4 0v-5.94h.772v5.94zm4.693 0h-.768v-5.21h-1.679v-.73h4.136v.73h-1.684z" class="cls-3" data-name="Path 387"/>
    <path id="Path_388" d="M75.123 12.92a3.15 3.15 0 0 1-4.41 0 3.018 3.018 0 0 1-.886-2.206 3.016 3.016 0 0 1 .886-2.2 3.139 3.139 0 0 1 4.4.005 3.005 3.005 0 0 1 .891 2.2 3.02 3.02 0 0 1-.886 2.206zm-3.838-.5a2.33 2.33 0 0 0 3.266 0 2.316 2.316 0 0 0 .67-1.708 2.317 2.317 0 0 0-.67-1.708 2.333 2.333 0 0 0-3.266 0 2.321 2.321 0 0 0-.67 1.708 2.32 2.32 0 0 0 .67 1.711z" class="cls-4" data-name="Path 388"/>
    <path id="Path_389" d="M77.578 13.685v-5.94h.94l2.921 4.62h.034l-.034-1.142V7.746h.773v5.939h-.806l-3.06-4.847h-.034l.034 1.147v3.7z" class="cls-3" data-name="Path 389"/>
    <path id="Path_390" d="M69.846 21.7a4.245 4.245 0 1 0 4.233 4.246 4.17 4.17 0 0 0-4.233-4.246zm0 6.818a2.446 2.446 0 0 1-2.376-2.572 2.385 2.385 0 1 1 4.756 0 2.449 2.449 0 0 1-2.38 2.57zM60.62 21.7a4.245 4.245 0 1 0 4.228 4.246A4.166 4.166 0 0 0 60.62 21.7zm0 6.818a2.448 2.448 0 0 1-2.38-2.572 2.385 2.385 0 1 1 4.756 0 2.446 2.446 0 0 1-2.376 2.57zM49.642 23v1.8h4.277a3.756 3.756 0 0 1-.973 2.266 4.377 4.377 0 0 1-3.3 1.316 4.792 4.792 0 0 1 0-9.582 4.522 4.522 0 0 1 3.223 1.286l1.262-1.271A6.215 6.215 0 0 0 49.642 17a6.594 6.594 0 1 0 0 13.188 5.816 5.816 0 0 0 6.116-6.062 6.068 6.068 0 0 0-.1-1.127h-6.016zm44.89 1.4a3.915 3.915 0 0 0-3.608-2.7 4.021 4.021 0 0 0-3.972 4.246 4.194 4.194 0 0 0 7.692 2.363l-1.436-.965a2.407 2.407 0 0 1-2.076 1.174 2.141 2.141 0 0 1-2.041-1.286l5.636-2.35-.194-.482zm-5.746 1.413a2.322 2.322 0 0 1 2.2-2.475 1.637 1.637 0 0 1 1.569.9zM84.2 29.931h1.853V17.453H84.2V29.93zm-3.034-7.287h-.062a2.914 2.914 0 0 0-2.216-.945 4.25 4.25 0 0 0 0 8.49 2.87 2.87 0 0 0 2.216-.964h.062v.609c0 1.623-.861 2.5-2.25 2.5a2.341 2.341 0 0 1-2.116-1.521l-1.61.678A4.02 4.02 0 0 0 78.92 34c2.173 0 4.006-1.288 4.006-4.42v-7.624H81.17v.687zm-2.12 5.873a2.428 2.428 0 0 1-2.345-2.559 2.445 2.445 0 0 1 2.345-2.587 2.384 2.384 0 0 1 2.25 2.587 2.367 2.367 0 0 1-2.25 2.56zm24.156-11.063h-4.426V29.93h1.848V25.2h2.583a3.879 3.879 0 1 0 0-7.749zm.048 6.014h-2.631v-4.279h2.631a2.14 2.14 0 1 1 0 4.279zm11.423-1.793a3.461 3.461 0 0 0-3.294 1.91l1.64.693a1.745 1.745 0 0 1 1.688-.917 1.784 1.784 0 0 1 1.945 1.6v.139a4.03 4.03 0 0 0-1.93-.483c-1.767 0-3.566.98-3.566 2.808a2.867 2.867 0 0 0 3.073 2.748 2.609 2.609 0 0 0 2.36-1.222h.063v.964h1.785v-4.79c0-2.212-1.64-3.45-3.764-3.45zm-.223 6.837c-.6 0-1.446-.3-1.446-1.056 0-.966 1.05-1.337 1.959-1.337a3.293 3.293 0 0 1 1.69.42 2.25 2.25 0 0 1-2.198 1.973zm10.49-6.564l-2.125 5.409h-.063l-2.2-5.409h-1.993l3.3 7.559-1.883 4.206h1.931L127 21.947h-2.056zm-16.657 7.983h1.852V17.453h-1.852V29.93z" class="cls-5" data-name="Path 390"/>
    <path id="Path_391" d="M.689-24.968a1.959 1.959 0 0 0-.465 1.393v21.91A1.954 1.954 0 0 0 .689-.272L.762-.2l12.422-12.278v-.29L.762-25.04z" class="cls-6" data-name="Path 391" transform="translate(12 33)"/>
    <path id="Path_392" d="M4.537-.716L.4-4.809V-5.1l4.142-4.09.093.053 4.9 2.757c1.4.782 1.4 2.07 0 2.858l-4.9 2.753z" class="cls-7" data-name="Path 392" transform="translate(24 25)"/>
    <path id="Path_393" d="M17.165-9.438l-4.234-4.185L.436-1.272a1.646 1.646 0 0 0 2.085.058l14.644-8.224" class="cls-8" data-name="Path 393" transform="translate(12 34)"/>
    <path id="Path_394" d="M17.165-4.185L2.52-12.409a1.653 1.653 0 0 0-2.085.063L12.931 0z" class="cls-9" data-name="Path 394" transform="translate(12 20)"/>
</svg>
